<?xml version="1.0" standalone="no"?>
<!DOCTYPE svg PUBLIC "-//W3C//DTD SVG 20010904//EN"
 "http://www.w3.org/TR/2001/REC-SVG-20010904/DTD/svg10.dtd">
<svg version="1.0" xmlns="http://www.w3.org/2000/svg"
 width="512.000000pt" height="512.000000pt" viewBox="0 0 512.000000 512.000000"
 preserveAspectRatio="xMidYMid meet">

<g transform="translate(0.000000,512.000000) scale(0.100000,-0.100000)"
fill="#000000" stroke="none">
<path d="M380 5024 c-143 -38 -247 -144 -284 -289 -14 -52 -16 -218 -16 -1377
l0 -1318 2480 0 2480 0 -2 1343 c-3 1259 -4 1345 -21 1387 -43 110 -130 199
-240 244 l-52 21 -2145 2 c-1865 2 -2152 0 -2200 -13z m4311 -333 l29 -29 0
-886 0 -886 -393 -2 -393 -3 73 -255 c40 -140 72 -258 73 -263 0 -4 -109 -6
-242 -5 l-242 3 -76 260 -77 260 -196 3 -196 2 9 -27 c12 -38 140 -492 140
-498 0 -3 -199 -4 -442 -3 l-442 3 -76 260 -77 260 -216 3 -216 2 9 -27 c13
-39 140 -492 140 -498 0 -3 -64 -4 -142 -3 l-142 3 -76 260 -77 260 -521 3
-522 2 0 886 0 886 29 29 29 29 2102 0 2102 0 29 -29z"/>
<path d="M1410 662 c-159 -42 -277 -163 -315 -323 -8 -35 -15 -72 -15 -81 0
-17 77 -18 1480 -18 1403 0 1480 1 1480 18 0 39 -32 149 -57 193 -57 106 -182
197 -302 219 -34 6 -449 10 -1130 9 -979 0 -1082 -2 -1141 -17z"/>
</g>
</svg>
